Coordinates
version=1
nRows=14
nColumns=24
inDegrees=yes

Units are S.I. units (second, meters, Newtons, ...)
Angles are in degrees.

endheader
time	pelvis_tilt	pelvis_list	pelvis_rotation	pelvis_tx	pelvis_ty	pelvis_tz	hip_flexion_r	hip_adduction_r	hip_rotation_r	knee_angle_r	ankle_angle_r	subtalar_angle_r	mtp_angle_r	hip_flexion_l	hip_adduction_l	hip_rotation_l	knee_angle_l	ankle_angle_l	subtalar_angle_l	mtp_angle_l	lumbar_extension	lumbar_bending	lumbar_rotation
      1.17100000	      5.48434969	      4.39175280	     -2.06849891	      0.11047744	      1.02773050	      0.25690382	     10.96404689	     -3.88897990	     -1.71413348	    -59.89388428	      6.95628782	    -19.60967612	      0.62198834	      3.44766391	      6.90464626	      0.67051849	    -11.64358379	      3.77575412	    -11.88363005	      3.30336450	    -15.46621706	     -6.18620995	      4.51403047
      1.17516667	      5.44277343	      4.26735866	     -2.03615555	      0.11561270	      1.02843674	      0.25674578	     11.40445513	     -3.66051287	     -1.61049739	    -59.05869081	      7.07955441	    -19.55096752	      0.63417679	      3.02681218	      6.79444021	      0.76046171	    -11.38113805	      3.87896001	    -11.91039128	      3.28387102	    -15.45664941	     -6.04573840	      4.42392732
      1.17933333	      5.42418552	      4.14652820	     -1.98968195	      0.12075360	      1.02914765	      0.25656533	     11.79645349	     -3.44365229	     -1.52729178	    -58.15559536	      7.15969042	    -19.50067445	      0.64985054	      2.57008645	      6.69078201	      0.88774424	    -11.09654644	      3.98136411	    -11.95910483	      3.26081193	    -15.47663952	     -5.90185164	      4.29479246
      1.18350000	      5.41792707	      4.05012287	     -1.93941723	      0.12590519	      1.02984786	      0.25639898	     12.15989967	     -3.25474207	     -1.44663024	    -57.20073685	      7.19817351	    -19.49317240	      0.68891079	      2.07353341	      6.61822795	      1.08499278	    -10.75262695	      4.05152009	    -12.09616939	      3.20468542	    -15.51942682	     -5.78943654	      4.07200262
      1.18766667	      5.37271367	      3.94531030	     -1.88786262	      0.13108627	      1.03045019	      0.25623900	     12.54651706	     -3.05882858	     -1.36991998	    -56.19157041	      7.24268757	    -19.42108814	      0.70744600	      1.64511695	      6.52287603	      1.17684624	    -10.46544672	      4.14329336	    -12.11252332	      3.18170137	    -15.49308842	     -5.66300027	      3.97327849
      1.19183333	      5.34926636	      3.83842210	     -1.81819363	      0.13626178	      1.03105267	      0.25607029	     12.88489668	     -2.86289891	     -1.30875841	    -55.12047827	      7.21321000	    -19.45302598	      0.74550136	      1.17272652	      6.43024900	      1.35972026	    -10.13705464	      4.23453674	    -12.20243510	      3.13071577	    -15.51060808	     -5.53787428	      3.76121696
      1.19600000	      5.31734337	      3.74334340	     -1.75323018	      0.14145819	      1.03160019	      0.25591222	     13.21828310	     -2.68548676	     -1.25162830	    -54.00810092	      7.18567987	    -19.44863578	      0.78024754	      0.71458664	      6.34446188	      1.49031678	     -9.81671799	      4.31945337	    -12.25150296	      3.08436066	    -15.50288280	     -5.41885770	      3.59828827
      1.20016667	      5.26002199	      3.64945082	     -1.69059409	      0.14665556	      1.03204976	      0.25576589	     13.56671680	     -2.50960082	     -1.18854887	    -52.85905113	      7.16330790	    -19.41461158	      0.79745412	      0.29640730	      6.25339884	      1.57339339	     -9.51940928	      4.39485328	    -12.25487916	      3.06039223	    -15.46533352	     -5.30102277	      3.47740440
      1.20433333	      5.22423313	      3.56337950	     -1.60962123	      0.15185948	      1.03250301	      0.25561441	     13.86884670	     -2.34748578	     -1.14781773	    -51.65953364	      7.05336743	    -19.51606745	      0.82569452	     -0.16487021	      6.17453655	      1.73980942	     -9.18347607	      4.49544745	    -12.31537638	      3.01415989	    -15.46145818	     -5.19753580	      3.24855873
      1.20850000	      5.15644050	      3.47856833	     -1.53733041	      0.15707824	      1.03285532	      0.25546767	     14.19318993	     -2.19260302	     -1.10496997	    -50.42833633	      6.98928738	    -19.50608433	      0.83895243	     -0.57363596	      6.08958604	      1.82000142	     -8.88057266	      4.56458126	    -12.31610062	      2.99029588	    -15.40652993	     -5.08381320	      3.11984705
      1.21266667	      5.11322445	      3.40990644	     -1.45599856	      0.16228237	      1.03318615	      0.25533754	     14.47718022	     -2.05618322	     -1.06768242	    -49.16507287	      6.84205295	    -19.65361023	      0.86178614	     -1.02706600	      6.02499592	      1.98155093	     -8.54015125	      4.65857938	    -12.37955127	      2.94032785	    -15.39325159	     -5.00209174	      2.87040716
      1.21683333	      5.04305137	      3.32993759	     -1.37161725	      0.16751953	      1.03344430	      0.25518382	     14.76909743	     -1.92076840	     -1.05155613	    -47.86275822	      6.74054845	    -19.66732531	      0.86991944	     -1.43200627	      5.94186166	      2.06229208	     -8.24055160	      4.73315817	    -12.37451989	      2.91646270	    -15.33126840	     -4.88880395	      2.73814613
      1.22100000	      4.97914879	      3.27244078	     -1.28992540	      0.17274455	      1.03364938	      0.25505200	     15.04515870	     -1.80945704	     -1.02795188	    -46.53744504	      6.59650953	    -19.77017745	      0.87427989	     -1.85108704	      5.88364306	      2.17142679	     -7.92287822	      4.82164519	    -12.38668963	      2.89064635	    -15.28056714	     -4.80912114	      2.55450154
      1.22516667	      4.92768170	      3.22250855	     -1.20713759	      0.17796760	      1.03382233	      0.25493568	     15.29489601	     -1.70945005	     -1.00754485	    -45.18832278	      6.41227255	    -19.95560417	      0.88009090	     -2.29631151	      5.83365843	      2.32244284	     -7.57895666	      4.91892028	    -12.44437458	      2.84620097	    -15.25519406	     -4.75041871	      2.29836905
